<?xml version="1.0" encoding="UTF-8"?>
<svg width="360px" height="663px" viewBox="0 0 360 663" version="1.1" xmlns="http://www.w3.org/2000/svg" xmlns:xlink="http://www.w3.org/1999/xlink">
    <defs>
        <filter x="-12.9%" y="-6.4%" width="125.8%" height="112.9%" filterUnits="objectBoundingBox" id="filter-1">
            <feOffset dx="0" dy="2" in="SourceAlpha" result="shadowOffsetOuter1"></feOffset>
            <feGaussianBlur stdDeviation="9" in="shadowOffsetOuter1" result="shadowBlurOuter1"></feGaussianBlur>
            <feColorMatrix values="0 0 0 0 0   0 0 0 0 0   0 0 0 0 0  0 0 0 0.12 0" type="matrix" in="shadowBlurOuter1" result="shadowMatrixOuter1"></feColorMatrix>
            <feMerge>
                <feMergeNode in="shadowMatrixOuter1"></feMergeNode>
                <feMergeNode in="SourceGraphic"></feMergeNode>
            </feMerge>
        </filter>
        <path d="M58,1.55376046e-15 C59.999349,1.55376046e-15 60.9990234,1.00042725 60.9990234,3.00128174 L60.9990234,5 C60.9990234,13.836556 68.1624674,21 76.9990234,21 L190.999023,21 C199.835579,21 206.999023,13.836556 206.999023,5 L206.999023,3.00128174 C206.999023,1.00042725 207.998698,1.55376046e-15 209.998047,1.55376046e-15 L229.541722,3.10752092e-15 C242.914503,6.50980888e-16 247.763797,1.39238417 252.652686,4.00699056 C257.541574,6.62159695 261.378403,10.4584256 263.993009,15.3473144 C266.607616,20.2362033 268,25.0854969 268,38.458278 L268,538.541722 C268,551.914503 266.607616,556.763797 263.993009,561.652686 C261.378403,566.541574 257.541574,570.378403 252.652686,572.993009 C247.763797,575.607616 242.914503,577 229.541722,577 L38.458278,577 C25.0854969,577 20.2362033,575.607616 15.3473144,572.993009 C10.4584256,570.378403 6.62159695,566.541574 4.00699056,561.652686 C1.39238417,556.763797 1.63769336e-15,551.914503 0,538.541722 L2.07168062e-15,38.458278 C4.33987259e-16,25.0854969 1.39238417,20.2362033 4.00699056,15.3473144 C6.62159695,10.4584256 10.4584256,6.62159695 15.3473144,4.00699056 C20.2362033,1.39238417 25.0854969,2.45654003e-15 38.458278,0 L58,1.55376046e-15 Z" id="path-2"></path>
    </defs>
    <g id="Page-1" stroke="none" stroke-width="1" fill="none" fill-rule="evenodd">
        <g id="iPhoneX---black" filter="url(#filter-1)" transform="translate(29.000000, 29.000000)">
            <g id="body">
                <path d="M2,82 L3,82 L3,104 L2,104 C0.8954305,104 1.3527075e-16,103.104569 0,102 L0,84 C-1.3527075e-16,82.8954305 0.8954305,82 2,82 Z" id="manerButton" fill="#3E3F40"></path>
                <path d="M299,139 L300,139 C301.104569,139 302,139.895431 302,141 L302,206 C302,207.104569 301.104569,208 300,208 L299,208 L299,139 Z" id="sleepButton" fill="#3E3F40"></path>
                <path d="M2,124 L3,124 L3,168 L2,168 C0.8954305,168 1.3527075e-16,167.104569 0,166 L0,126 C-1.3527075e-16,124.895431 0.8954305,124 2,124 Z" id="soundButton" fill="#3E3F40"></path>
                <path d="M2,179 L3,179 L3,223 L2,223 C0.8954305,223 1.3527075e-16,222.104569 0,221 L0,181 C-1.3527075e-16,179.895431 0.8954305,179 2,179 Z" id="soundButton" fill="#3E3F40"></path>
                <path d="M59.4054744,0 L242.594526,4.55769735e-15 C262.207938,9.5477197e-16 269.320235,2.04216345 276.490605,5.87691948 C283.660976,9.71167552 289.288324,15.3390242 293.123081,22.5093945 C296.957837,29.6797649 299,36.7920621 299,56.4054744 L299,548.594526 C299,568.207938 296.957837,575.320235 293.123081,582.490605 C289.288324,589.660976 283.660976,595.288324 276.490605,599.123081 C269.320235,602.957837 262.207938,605 242.594526,605 L59.4054744,605 C39.7920621,605 32.6797649,602.957837 25.5093945,599.123081 C18.3390242,595.288324 12.7116755,589.660976 8.87691948,582.490605 C5.04216345,575.320235 3,568.207938 3,548.594526 L3,56.4054744 C3,36.7920621 5.04216345,29.6797649 8.87691948,22.5093945 C12.7116755,15.3390242 18.3390242,9.71167552 25.5093945,5.87691948 C32.6797649,2.04216345 39.7920621,3.60292538e-15 59.4054744,0 Z" fill="#131415"></path>
                <path d="M136,22 L166,22 C167.104569,22 168,22.8954305 168,24 C168,25.1045695 167.104569,26 166,26 L136,26 C134.895431,26 134,25.1045695 134,24 C134,22.8954305 134.895431,22 136,22 Z" id="speaker" fill="#3B3F48"></path>
                <circle id="camera" fill="#3B3F48" cx="183" cy="24" r="4"></circle>
            </g>
            <g id="display" transform="translate(17.000000, 14.000000)">
                <mask id="mask-3" fill="white">
                    <use xlink:href="#path-2"></use>
                </mask>
                <path stroke="#3E3F40" stroke-width="2" d="M58,-1 C60.5518023,-1 61.9990234,0.44831093 61.9990234,3.00128174 L61.9990234,5 C61.9990234,13.2842712 68.7147522,20 76.9990234,20 L190.999023,20 C199.283295,20 205.999023,13.2842712 205.999023,5 L205.999023,3.00128174 C205.999023,0.44831093 207.446245,-1 209.998047,-1 L229.541722,-1 C241.884936,-1 247.403545,0.0656925974 253.124284,3.12517736 C258.187442,5.83298355 262.167016,9.81255823 264.874823,14.8757156 C267.934307,20.5964547 269,26.1150639 269,38.458278 L269,538.541722 C269,550.884936 267.934307,556.403545 264.874823,562.124284 C262.167016,567.187442 258.187442,571.167016 253.124284,573.874823 C247.403545,576.934307 241.884936,578 229.541722,578 L38.458278,578 C26.1150639,578 20.5964547,576.934307 14.8757156,573.874823 C9.81255823,571.167016 5.83298355,567.187442 3.12517736,562.124284 C0.0656925974,556.403545 -1,550.884936 -1,538.541722 L-1,38.458278 C-1,26.1150639 0.0656925974,20.5964547 3.12517736,14.8757156 C5.83298355,9.81255823 9.81255823,5.83298355 14.8757156,3.12517736 C20.5964547,0.0656925974 26.1150639,-1 38.458278,-1 L58,-1 Z"></path>
            </g>
        </g>
    </g>
</svg>
